# xmcd
#
# Track frame offsets: 
#        150
#        12785
#        31278
#        45478
#        58903
#        72163
#        95548
#        102500
#        115702
#        127605
#        140655
#        154558
#
# Disc length: 2436 seconds
#
# Revision: 11
# Processed by: cddbd v1.5.2PL0 Copyright (c) Steve Scherf et al.
# Submitted via: ExactAudioCopy v0.99pb3
#
DISCID=9609820c
DTITLE=Various Artist - Verve Unmixed
DYEAR=2002
DGENRE=Jazz
TTITLE0=Willie Bobo - Spanish Grease
TTITLE1=Carmen McRae - How Long Has This Been Going On?
TTITLE2=Astrud Gilberto - Who Needs Forever?
TTITLE3=Dinah Washington - Is You Is or Is You Ain't My Baby?
TTITLE4=Nina Simone - Feeling Good
TTITLE5=Shirley Horn - Return to Paradise
TTITLE6=Ella Fitzgerald - Wait Till You See Her
TTITLE7=Billie Holiday - Don't Explain
TTITLE8=Nina Simone - See-Line Woman
TTITLE9=Sarah Vaughan - Summertime
TTITLE10=Billie Holiday - Strange Fruit
TTITLE11=Tony Scott - Hare Krishna - Hail Krishna
EXTD=YEAR: 2002
EXTT0=
EXTT1=
EXTT2=
EXTT3=
EXTT4=
EXTT5=
EXTT6=
EXTT7=
EXTT8=
EXTT9=
EXTT10=
EXTT11=
PLAYORDER=
